<svg width="20" height="20" viewBox="0 0 20 20" fill="none" xmlns="http://www.w3.org/2000/svg">
<g clip-path="url(#clip0_14416_7358)">
<path d="M18.3334 9.23794V10.0046C18.3324 11.8016 17.7505 13.5502 16.6745 14.9895C15.5986 16.4288 14.0862 17.4817 12.3629 17.9912C10.6396 18.5007 8.7978 18.4395 7.11214 17.8168C5.42648 17.194 3.98729 16.043 3.00922 14.5355C2.03114 13.028 1.56657 11.2447 1.68481 9.45154C1.80305 7.65841 2.49775 5.95155 3.66531 4.5855C4.83288 3.21946 6.41074 2.26743 8.16357 1.8714C9.91641 1.47537 11.7503 1.65655 13.3918 2.38794M18.3334 3.33317L10.0001 11.6748L7.50008 9.17484" stroke="white" stroke-width="1.4" stroke-linecap="round" stroke-linejoin="round"/>
</g>
<defs>
<clipPath id="clip0_14416_7358">
<rect width="20" height="20" fill="white"/>
</clipPath>
</defs>
</svg>
