<svg width="18" height="16" viewBox="0 0 18 16" fill="none" xmlns="http://www.w3.org/2000/svg">
<path d="M5.15 3.86111H7.35M5.15 6.97222H7.35M5.15 10.0833H7.35M10.15 3.86111H12.35M10.15 6.97222H12.35M10.15 10.0833H12.35M15.15 14.75V3.23889C15.15 2.3677 15.15 1.9321 14.9756 1.59935C14.8222 1.30665 14.5774 1.06868 14.2764 0.919545C13.9341 0.75 13.4861 0.75 12.59 0.75H4.91C4.01392 0.75 3.56587 0.75 3.22362 0.919545C2.92256 1.06868 2.67779 1.30665 2.52439 1.59935C2.35 1.9321 2.35 2.3677 2.35 3.23889V14.75M16.75 14.75H0.75" stroke="#181D27" stroke-width="1.5" stroke-linecap="round" stroke-linejoin="round"/>
</svg>
