<svg width="20" height="20" viewBox="0 0 20 20" fill="none" xmlns="http://www.w3.org/2000/svg">
<path d="M6.66651 6.66699H6.67484M1.6665 4.33366L1.6665 8.06242C1.6665 8.47007 1.6665 8.6739 1.71255 8.86571C1.75338 9.03577 1.82072 9.19835 1.9121 9.34747C2.01517 9.51566 2.1593 9.65979 2.44755 9.94804L8.83808 16.3386C9.82812 17.3286 10.3231 17.8236 10.894 18.0091C11.3961 18.1722 11.9369 18.1722 12.439 18.0091C13.0099 17.8236 13.5049 17.3286 14.4949 16.3386L16.3381 14.4954C17.3281 13.5054 17.8231 13.0104 18.0086 12.4395C18.1718 11.9374 18.1718 11.3966 18.0086 10.8944C17.8231 10.3236 17.3281 9.82861 16.3381 8.83856L9.94755 2.44804C9.6593 2.15979 9.51517 2.01566 9.34698 1.91259C9.19786 1.82121 9.03528 1.75387 8.86522 1.71304C8.67341 1.66699 8.46958 1.66699 8.06193 1.66699L4.33317 1.66699C3.39975 1.66699 2.93304 1.66699 2.57652 1.84865C2.26292 2.00844 2.00795 2.2634 1.84816 2.57701C1.6665 2.93353 1.6665 3.40024 1.6665 4.33366ZM7.08317 6.66699C7.08317 6.89711 6.89662 7.08366 6.66651 7.08366C6.43639 7.08366 6.24984 6.89711 6.24984 6.66699C6.24984 6.43687 6.43639 6.25033 6.66651 6.25033C6.89662 6.25033 7.08317 6.43687 7.08317 6.66699Z" stroke="white" stroke-width="1.5" stroke-linecap="round" stroke-linejoin="round"/>
</svg>
