<svg width="15" height="15" viewBox="0 0 15 15" fill="none" xmlns="http://www.w3.org/2000/svg">
<path d="M11.5752 5.42969L2.93066 14.0742H0V11.1416L8.64453 2.49707L11.5752 5.42969ZM11.4619 0C11.5643 0 11.6661 0.0203111 11.7607 0.0595703C11.8553 0.098819 11.9414 0.156044 12.0137 0.228516L13.8438 2.05176C13.916 2.1239 13.9735 2.20943 14.0127 2.30371C14.052 2.3983 14.0723 2.50012 14.0723 2.60254C14.0723 2.70495 14.052 2.80677 14.0127 2.90137C13.9735 2.99565 13.916 3.08118 13.8438 3.15332L12.4121 4.58496L9.48145 1.65332L10.9111 0.228516C10.9834 0.156089 11.0696 0.0987937 11.1641 0.0595703C11.2585 0.0203979 11.3597 4.50232e-05 11.4619 0Z" fill="#1833B7"/>
</svg>
