<svg width="20" height="20" viewBox="0 0 20 20" fill="none" xmlns="http://www.w3.org/2000/svg">
<rect x="0.5" y="0.5" width="19" height="19" rx="3.5" fill="#FED067"/>
<rect x="0.5" y="0.5" width="19" height="19" rx="3.5" stroke="#FCB101"/>
<path d="M9.58151 5.01466C9.71596 4.74228 9.78318 4.60609 9.87444 4.56257C9.95384 4.52472 10.0461 4.52472 10.1255 4.56257C10.2168 4.60609 10.284 4.74228 10.4184 5.01466L11.694 7.59881C11.7337 7.67922 11.7535 7.71943 11.7825 7.75064C11.8082 7.77828 11.839 7.80068 11.8732 7.81659C11.9119 7.83455 11.9562 7.84104 12.045 7.85401L14.8982 8.27105C15.1987 8.31497 15.3489 8.33693 15.4184 8.41031C15.4789 8.47416 15.5074 8.5619 15.4958 8.64909C15.4826 8.74931 15.3738 8.85525 15.1563 9.06711L13.0925 11.0773C13.0281 11.14 12.996 11.1713 12.9752 11.2086C12.9568 11.2416 12.945 11.2778 12.9405 11.3154C12.9354 11.3577 12.9429 11.402 12.9581 11.4905L13.4451 14.3298C13.4965 14.6293 13.5221 14.779 13.4739 14.8678C13.4319 14.9452 13.3572 14.9994 13.2707 15.0154C13.1713 15.0338 13.0369 14.9631 12.7679 14.8217L10.2172 13.4803C10.1377 13.4385 10.098 13.4176 10.0561 13.4094C10.019 13.4021 9.98091 13.4021 9.94384 13.4094C9.90197 13.4176 9.86223 13.4385 9.78276 13.4803L7.232 14.8217C6.96308 14.9631 6.82862 15.0338 6.72919 15.0154C6.64269 14.9994 6.56805 14.9452 6.52606 14.8678C6.47779 14.779 6.50347 14.6293 6.55484 14.3298L7.04181 11.4905C7.05699 11.402 7.06458 11.3577 7.05945 11.3154C7.0549 11.2778 7.04311 11.2416 7.02473 11.2086C7.00397 11.1713 6.9718 11.14 6.90747 11.0773L4.84362 9.06711C4.6261 8.85525 4.51733 8.74931 4.5041 8.64909C4.49258 8.5619 4.52103 8.47416 4.58152 8.41031C4.65105 8.33693 4.80128 8.31497 5.10173 8.27105L7.95497 7.85401C8.04371 7.84104 8.08807 7.83455 8.12671 7.81659C8.16092 7.80068 8.19172 7.77828 8.2174 7.75064C8.2464 7.71943 8.26625 7.67922 8.30594 7.59881L9.58151 5.01466Z" fill="white" stroke="white" stroke-width="2" stroke-linecap="round" stroke-linejoin="round"/>
</svg>
