<svg width="20" height="20" viewBox="0 0 20 20" fill="none" xmlns="http://www.w3.org/2000/svg">
<g clip-path="url(#clip0_7183_10824)">
<mask id="path-1-outside-1_7183_10824" maskUnits="userSpaceOnUse" x="-0.000244141" y="-1" width="20" height="22" fill="black">
<rect fill="white" x="-0.000244141" y="-1" width="20" height="22"/>
<path fill-rule="evenodd" clip-rule="evenodd" d="M12.9998 0C13.5521 0 13.9998 0.447656 13.9998 1V4.5C15.1024 4.5 15.9998 5.39734 15.9998 6.5V13.5C15.9998 14.0516 16.4481 14.4999 16.9998 14.5C17.5514 14.5 17.9998 14.0517 17.9998 13.5V5C17.9998 4.99836 17.9991 4.9968 17.9988 4.99512C17.8846 4.8261 17.2386 4.55871 16.655 4.44238C16.3844 4.38872 16.2089 4.12578 16.2625 3.85449C16.3161 3.58383 16.574 3.40426 16.8503 3.46191C16.8593 3.46389 16.8746 3.46773 16.8845 3.46973C16.3649 3.05511 15.7603 2.68488 15.28 2.44922C15.0321 2.32727 14.9297 2.02722 15.0505 1.78027C15.1725 1.53131 15.4745 1.43281 15.7195 1.55078C16.0555 1.71512 18.9998 3.20898 18.9998 5V13.5C18.9998 14.6027 18.1024 15.5 16.9998 15.5C15.8972 15.4999 14.9998 14.6026 14.9998 13.5V6.5C14.9998 5.94832 14.5514 5.5 13.9998 5.5V19C13.9998 19.5523 13.5521 20 12.9998 20H1.99976C1.4475 19.9999 0.999756 19.5523 0.999756 19V1C0.999756 0.447721 1.4475 0.000105505 1.99976 0H12.9998ZM1.99976 1V19H12.9998V1H1.99976ZM10.9998 2C11.5521 2 11.9998 2.44766 11.9998 3V8C11.9998 8.55234 11.5521 9 10.9998 9H3.99976C3.4475 8.9999 2.99976 8.55228 2.99976 8V3C2.99976 2.44772 3.4475 2.00011 3.99976 2H10.9998ZM3.99976 3V8H10.9998V3H3.99976Z"/>
</mask>
<path fill-rule="evenodd" clip-rule="evenodd" d="M12.9998 0C13.5521 0 13.9998 0.447656 13.9998 1V4.5C15.1024 4.5 15.9998 5.39734 15.9998 6.5V13.5C15.9998 14.0516 16.4481 14.4999 16.9998 14.5C17.5514 14.5 17.9998 14.0517 17.9998 13.5V5C17.9998 4.99836 17.9991 4.9968 17.9988 4.99512C17.8846 4.8261 17.2386 4.55871 16.655 4.44238C16.3844 4.38872 16.2089 4.12578 16.2625 3.85449C16.3161 3.58383 16.574 3.40426 16.8503 3.46191C16.8593 3.46389 16.8746 3.46773 16.8845 3.46973C16.3649 3.05511 15.7603 2.68488 15.28 2.44922C15.0321 2.32727 14.9297 2.02722 15.0505 1.78027C15.1725 1.53131 15.4745 1.43281 15.7195 1.55078C16.0555 1.71512 18.9998 3.20898 18.9998 5V13.5C18.9998 14.6027 18.1024 15.5 16.9998 15.5C15.8972 15.4999 14.9998 14.6026 14.9998 13.5V6.5C14.9998 5.94832 14.5514 5.5 13.9998 5.5V19C13.9998 19.5523 13.5521 20 12.9998 20H1.99976C1.4475 19.9999 0.999756 19.5523 0.999756 19V1C0.999756 0.447721 1.4475 0.000105505 1.99976 0H12.9998ZM1.99976 1V19H12.9998V1H1.99976ZM10.9998 2C11.5521 2 11.9998 2.44766 11.9998 3V8C11.9998 8.55234 11.5521 9 10.9998 9H3.99976C3.4475 8.9999 2.99976 8.55228 2.99976 8V3C2.99976 2.44772 3.4475 2.00011 3.99976 2H10.9998ZM3.99976 3V8H10.9998V3H3.99976Z" fill="#535862"/>
<path d="M13.9998 1H14.2998H13.9998ZM13.9998 4.5H13.6998V4.8H13.9998V4.5ZM16.9998 14.5L16.9997 14.8H16.9998V14.5ZM17.9988 4.99512L18.2937 4.94024L18.2823 4.87891L18.2474 4.82721L17.9988 4.99512ZM16.655 4.44238L16.7137 4.14817L16.7134 4.14811L16.655 4.44238ZM16.2625 3.85449L15.9682 3.79614L15.9681 3.79634L16.2625 3.85449ZM16.8503 3.46191L16.9151 3.16896L16.9116 3.16824L16.8503 3.46191ZM16.8845 3.46973L16.8256 3.76388L17.0716 3.23524L16.8845 3.46973ZM15.28 2.44922L15.1476 2.71841L15.1479 2.71855L15.28 2.44922ZM15.0505 1.78027L14.7811 1.64828L14.7811 1.64843L15.0505 1.78027ZM15.7195 1.55078L15.8513 1.28128L15.8496 1.28049L15.7195 1.55078ZM18.9998 5H19.2998H18.9998ZM16.9998 15.5L16.9997 15.8H16.9998V15.5ZM13.9998 5.5V5.2H13.6998V5.5H13.9998ZM13.9998 19H14.2998V19H13.9998ZM1.99976 20L1.9997 20.3H1.99976V20ZM0.999756 19H0.699756V19H0.999756ZM0.999756 1H0.699756H0.999756ZM1.99976 0V-0.3H1.9997L1.99976 0ZM1.99976 1V0.7H1.69976V1H1.99976ZM1.99976 19H1.69976V19.3H1.99976V19ZM12.9998 19V19.3H13.2998V19H12.9998ZM12.9998 1H13.2998V0.7H12.9998V1ZM11.9998 3H12.2998H11.9998ZM11.9998 8H12.2998V8H11.9998ZM3.99976 9L3.9997 9.3H3.99976V9ZM2.99976 8H2.69976H2.69976H2.99976ZM3.99976 2V1.7L3.9997 1.7L3.99976 2ZM3.99976 3V2.7H3.69976V3H3.99976ZM3.99976 8H3.69976V8.3H3.99976V8ZM10.9998 8V8.3H11.2998V8H10.9998ZM10.9998 3H11.2998V2.7H10.9998V3ZM12.9998 0V0.3C13.3864 0.3 13.6998 0.613342 13.6998 1H13.9998H14.2998C14.2998 0.281971 13.7178 -0.3 12.9998 -0.3V0ZM13.9998 1H13.6998V4.5H13.9998H14.2998V1H13.9998ZM13.9998 4.5V4.8C14.9367 4.8 15.6998 5.56303 15.6998 6.5H15.9998H16.2998C16.2998 5.23166 15.2681 4.2 13.9998 4.2V4.5ZM15.9998 6.5H15.6998V13.5H15.9998H16.2998V6.5H15.9998ZM15.9998 13.5H15.6998C15.6998 14.2174 16.2825 14.7999 16.9997 14.8L16.9998 14.5L16.9998 14.2C16.6138 14.1999 16.2998 13.8859 16.2998 13.5H15.9998ZM16.9998 14.5V14.8C17.7171 14.8 18.2998 14.2174 18.2998 13.5H17.9998H17.6998C17.6998 13.886 17.3857 14.2 16.9998 14.2V14.5ZM17.9998 13.5H18.2998V5H17.9998H17.6998V13.5H17.9998ZM17.9998 5H18.2998C18.2998 4.97941 18.2977 4.96213 18.2956 4.94953C18.2935 4.93728 18.2912 4.92774 18.2901 4.92357C18.2896 4.92142 18.2891 4.91967 18.289 4.91941C18.2888 4.91866 18.2891 4.91976 18.2894 4.92084C18.29 4.92318 18.2919 4.93056 18.2937 4.94024L17.9988 4.99512L17.7038 5.04999C17.7058 5.06052 17.7079 5.06872 17.7087 5.07187C17.7091 5.07337 17.7095 5.07488 17.7094 5.07452C17.7094 5.07452 17.7094 5.07444 17.7094 5.07432C17.7093 5.07419 17.7093 5.074 17.7092 5.07376C17.7091 5.07329 17.7089 5.07253 17.7087 5.07158C17.7078 5.06821 17.7056 5.05947 17.7037 5.04803C17.7018 5.03624 17.6998 5.01977 17.6998 5H17.9998ZM17.9988 4.99512L18.2474 4.82721C18.1786 4.72534 18.0652 4.64864 17.9753 4.59552C17.8736 4.53539 17.7501 4.47637 17.6173 4.42163C17.3514 4.31206 17.0254 4.21031 16.7137 4.14817L16.655 4.44238L16.5964 4.73659C16.8682 4.79078 17.157 4.88089 17.3886 4.97636C17.5045 5.02413 17.6004 5.07091 17.6701 5.1121C17.7517 5.16028 17.7619 5.18039 17.7502 5.16302L17.9988 4.99512ZM16.655 4.44238L16.7134 4.14811C16.6059 4.1268 16.5351 4.02216 16.5568 3.91264L16.2625 3.85449L15.9681 3.79634C15.8826 4.2294 16.1629 4.65064 16.5967 4.73665L16.655 4.44238ZM16.2625 3.85449L16.5567 3.91285C16.5791 3.80019 16.6817 3.73318 16.7891 3.75559L16.8503 3.46191L16.9116 3.16824C16.4664 3.07534 16.0532 3.36747 15.9682 3.79614L16.2625 3.85449ZM16.8503 3.46191L16.7856 3.75485C16.7856 3.75484 16.7859 3.7549 16.7866 3.75507C16.7873 3.75523 16.7882 3.75544 16.7894 3.75572C16.793 3.75657 16.7934 3.75669 16.7982 3.75782C16.8041 3.75919 16.815 3.76176 16.8256 3.76388L16.8845 3.46973L16.9435 3.17558C16.9443 3.17575 16.9441 3.17572 16.9423 3.17532C16.9407 3.17495 16.9386 3.17446 16.9358 3.17381C16.9345 3.17348 16.9331 3.17316 16.9315 3.17279C16.9301 3.17244 16.9284 3.17204 16.9267 3.17165C16.9236 3.17092 16.9194 3.16993 16.9151 3.16898L16.8503 3.46191ZM16.8845 3.46973L17.0716 3.23524C16.5341 2.80631 15.9109 2.4246 15.4122 2.17989L15.28 2.44922L15.1479 2.71855C15.6097 2.94515 16.1958 3.3039 16.6974 3.70422L16.8845 3.46973ZM15.28 2.44922L15.4124 2.18002C15.3126 2.13093 15.2721 2.01012 15.32 1.91212L15.0505 1.78027L14.7811 1.64843C14.5874 2.04431 14.7516 2.52361 15.1476 2.71841L15.28 2.44922ZM15.0505 1.78027L15.3199 1.91227C15.3675 1.81513 15.4891 1.77281 15.5893 1.82108L15.7195 1.55078L15.8496 1.28049C15.4599 1.09281 14.9775 1.24748 14.7811 1.64828L15.0505 1.78027ZM15.7195 1.55078L15.5877 1.82028C15.7481 1.89875 16.5459 2.30219 17.2991 2.90032C17.6756 3.19936 18.031 3.53927 18.2902 3.90275C18.5498 4.26681 18.6998 4.6358 18.6998 5H18.9998H19.2998C19.2998 4.46869 19.0817 3.97931 18.7787 3.55442C18.4754 3.12894 18.0737 2.7493 17.6722 2.43045C16.8692 1.79281 16.0268 1.36715 15.8513 1.28129L15.7195 1.55078ZM18.9998 5H18.6998V13.5H18.9998H19.2998V5H18.9998ZM18.9998 13.5H18.6998C18.6998 14.437 17.9367 15.2 16.9998 15.2V15.5V15.8C18.2681 15.8 19.2998 14.7683 19.2998 13.5H18.9998ZM16.9998 15.5L16.9998 15.2C16.0629 15.1999 15.2998 14.4369 15.2998 13.5H14.9998H14.6998C14.6998 14.7683 15.7315 15.7999 16.9997 15.8L16.9998 15.5ZM14.9998 13.5H15.2998V6.5H14.9998H14.6998V13.5H14.9998ZM14.9998 6.5H15.2998C15.2998 5.78263 14.7171 5.2 13.9998 5.2V5.5V5.8C14.3857 5.8 14.6998 6.11401 14.6998 6.5H14.9998ZM13.9998 5.5H13.6998V19H13.9998H14.2998V5.5H13.9998ZM13.9998 19H13.6998C13.6998 19.3867 13.3864 19.7 12.9998 19.7V20V20.3C13.7178 20.3 14.2998 19.718 14.2998 19H13.9998ZM12.9998 20V19.7H1.99976V20V20.3H12.9998V20ZM1.99976 20L1.99981 19.7C1.61314 19.6999 1.29976 19.3865 1.29976 19H0.999756H0.699756C0.699756 19.718 1.28186 20.2999 1.9997 20.3L1.99976 20ZM0.999756 19H1.29976V1H0.999756H0.699756V19H0.999756ZM0.999756 1H1.29976C1.29976 0.613464 1.61314 0.300074 1.99981 0.3L1.99976 0L1.9997 -0.3C1.28186 -0.299863 0.699756 0.281979 0.699756 1H0.999756ZM1.99976 0V0.3H12.9998V0V-0.3H1.99976V0ZM1.99976 1H1.69976V19H1.99976H2.29976V1H1.99976ZM1.99976 19V19.3H12.9998V19V18.7H1.99976V19ZM12.9998 19H13.2998V1H12.9998H12.6998V19H12.9998ZM12.9998 1V0.7H1.99976V1V1.3H12.9998V1ZM10.9998 2V2.3C11.3864 2.3 11.6998 2.61334 11.6998 3H11.9998H12.2998C12.2998 2.28197 11.7178 1.7 10.9998 1.7V2ZM11.9998 3H11.6998V8H11.9998H12.2998V3H11.9998ZM11.9998 8H11.6998C11.6998 8.38666 11.3864 8.7 10.9998 8.7V9V9.3C11.7178 9.3 12.2998 8.71803 12.2998 8H11.9998ZM10.9998 9V8.7H3.99976V9V9.3H10.9998V9ZM3.99976 9L3.99981 8.7C3.61314 8.69993 3.29976 8.38654 3.29976 8H2.99976H2.69976C2.69976 8.71802 3.28186 9.29986 3.9997 9.3L3.99976 9ZM2.99976 8H3.29976V3H2.99976H2.69976V8H2.99976ZM2.99976 3H3.29976C3.29976 2.61346 3.61314 2.30007 3.99981 2.3L3.99976 2L3.9997 1.7C3.28186 1.70014 2.69976 2.28198 2.69976 3H2.99976ZM3.99976 2V2.3H10.9998V2V1.7H3.99976V2ZM3.99976 3H3.69976V8H3.99976H4.29976V3H3.99976ZM3.99976 8V8.3H10.9998V8V7.7H3.99976V8ZM10.9998 8H11.2998V3H10.9998H10.6998V8H10.9998ZM10.9998 3V2.7H3.99976V3V3.3H10.9998V3Z" fill="#535862" mask="url(#path-1-outside-1_7183_10824)"/>
</g>
<defs>
<clipPath id="clip0_7183_10824">
<rect width="20" height="20" fill="white"/>
</clipPath>
</defs>
</svg>
