<svg width="21" height="18" viewBox="0 0 21 18" fill="none" xmlns="http://www.w3.org/2000/svg">
<path d="M10.1001 0.100098C12.0514 0.100238 13.96 0.670118 15.5907 1.73952C17.2215 2.80893 18.5033 4.33115 19.278 6.11862C20.0528 7.9061 20.2867 9.88074 19.951 11.7993C19.6152 13.7178 18.7245 15.4964 17.3886 16.9159L17.2151 17.1001H2.98509L2.81158 16.9159C1.47564 15.4964 0.58495 13.7178 0.249233 11.7993C-0.0864835 9.88074 0.147443 7.9061 0.922192 6.11862C1.69694 4.33115 2.97867 2.80893 4.60945 1.73952C6.24024 0.670118 8.14883 0.100238 10.1001 0.100098ZM10.6861 1.28993V2.79069H9.51406V1.28993C8.36278 1.365 7.23769 1.66623 6.20332 2.17631L6.95337 3.47395L5.9383 4.05888L5.18825 2.76124C4.23141 3.40307 3.40861 4.22431 2.76557 5.17934L4.06567 5.92797L3.48062 6.94262L2.18053 6.19399C1.66946 7.22639 1.36766 8.34936 1.29247 9.49846H2.79508V10.6683H1.29097C1.36579 11.8178 1.66671 12.9414 2.17653 13.9748L3.48062 13.2212L4.06667 14.2343L2.76357 14.983C2.98645 15.3144 3.23152 15.6303 3.49713 15.9287H16.7031C16.9687 15.6303 17.2137 15.3144 17.4366 14.983L16.1335 14.2343L16.7196 13.2212L18.0237 13.9748C18.5334 12.9415 18.8343 11.8182 18.9092 10.6688H17.4051V9.49696H18.9087C18.8335 8.34786 18.5317 7.22489 18.0207 6.19249L16.7206 6.94112L16.1345 5.92797L17.4346 5.17934C16.7916 4.22431 15.9688 3.40307 15.0119 2.76124L14.2619 4.05888L13.2453 3.47494L13.9954 2.17731C12.961 1.66719 11.8359 1.36596 10.6846 1.29093L10.6861 1.28993ZM10.7331 6.27384V9.93966C11.1703 10.0792 11.543 10.37 11.7842 10.7597C12.0253 11.1494 12.119 11.6123 12.0482 12.0649C11.9775 12.5175 11.747 12.9299 11.3984 13.2278C11.0498 13.5257 10.606 13.6894 10.1471 13.6894C9.68818 13.6894 9.24438 13.5257 8.89577 13.2278C8.54715 12.9299 8.31669 12.5175 8.24596 12.0649C8.17522 11.6123 8.26888 11.1494 8.51003 10.7597C8.75119 10.37 9.12395 10.0792 9.56106 9.93966V6.27384H10.7331ZM10.1471 11.0177C9.99875 11.0177 9.85374 11.0616 9.73039 11.1439C9.60705 11.2261 9.51091 11.343 9.45414 11.4798C9.39737 11.6166 9.38252 11.7672 9.41146 11.9124C9.4404 12.0576 9.51184 12.191 9.61673 12.2957C9.72163 12.4004 9.85528 12.4717 10.0008 12.5006C10.1463 12.5295 10.2971 12.5146 10.4341 12.458C10.5712 12.4013 10.6883 12.3054 10.7707 12.1822C10.8532 12.0591 10.8972 11.9144 10.8972 11.7663C10.8964 11.568 10.8171 11.3781 10.6766 11.2378C10.5361 11.0976 10.3458 11.0185 10.1471 11.0177ZM10.1471 3.92113C11.7836 3.92298 13.3525 4.57265 14.5096 5.72762C15.6668 6.88259 16.3177 8.44853 16.3195 10.0819H15.1475C15.1475 8.75823 14.6206 7.48877 13.6829 6.5528C12.7451 5.61682 11.4733 5.091 10.1471 5.091C8.82092 5.091 7.54906 5.61682 6.61131 6.5528C5.67357 7.48877 5.14674 8.75823 5.14674 10.0819H3.97466C3.97651 8.44853 4.62742 6.88259 5.78457 5.72762C6.94173 4.57265 8.51064 3.92298 10.1471 3.92113Z" fill="#535862" stroke="#535862" stroke-width="0.2"/>
</svg>
