<svg width="20" height="20" viewBox="0 0 20 20" fill="none" xmlns="http://www.w3.org/2000/svg">
<path d="M13.7501 13.3332L17.9167 17.4998M17.9167 13.3332L13.7501 17.4998M18.3334 8.33317H1.66675M18.3334 9.99984V6.83317C18.3334 5.89975 18.3334 5.43304 18.1518 5.07652C17.992 4.76292 17.737 4.50795 17.4234 4.34816C17.0669 4.1665 16.6002 4.1665 15.6667 4.1665H4.33342C3.39999 4.1665 2.93328 4.1665 2.57676 4.34816C2.26316 4.50795 2.00819 4.76292 1.8484 5.07652C1.66675 5.43304 1.66675 5.89975 1.66675 6.83317V13.1665C1.66675 14.0999 1.66675 14.5666 1.8484 14.9232C2.00819 15.2368 2.26316 15.4917 2.57676 15.6515C2.93328 15.8332 3.39999 15.8332 4.33341 15.8332H10.0001" stroke="#535862" stroke-width="1.5" stroke-linecap="round" stroke-linejoin="round"/>
</svg>
