<svg width="20" height="20" viewBox="0 0 20 20" fill="none" xmlns="http://www.w3.org/2000/svg">
<g clip-path="url(#clip0_12741_42806)">
<path d="M0 9.99942C0 11.2226 0.220039 12.3943 0.621992 13.4777L10 14.3472L19.378 13.4777C19.78 12.3943 20 11.2226 20 9.99942C20 8.77622 19.78 7.6045 19.378 6.52118L10 5.65161L0.621992 6.52118C0.220039 7.6045 0 8.77622 0 9.99942Z" fill="#FFDA44"/>
<path d="M19.3795 6.52151C17.9666 2.71354 14.3012 -0.000244141 10.0015 -0.000244141C5.70189 -0.000244141 2.03646 2.71354 0.623535 6.52151H19.3795Z" fill="#D80027"/>
<path d="M0.622559 13.4784C2.03549 17.2864 5.70092 20.0002 10.0006 20.0002C14.3002 20.0002 17.9656 17.2864 19.3786 13.4784H0.622559Z" fill="#D80027"/>
</g>
<defs>
<clipPath id="clip0_12741_42806">
<rect width="20" height="20" fill="white"/>
</clipPath>
</defs>
</svg>
