<svg width="26" height="26" viewBox="0 0 26 26" fill="none" xmlns="http://www.w3.org/2000/svg">
<path d="M12.1275 24.0665C12.4043 24.2172 12.5426 24.2925 12.7379 24.3316C12.8894 24.3619 13.1106 24.3619 13.2621 24.3316C13.4574 24.2925 13.5957 24.2172 13.8725 24.0665C16.3075 22.7406 23 18.5756 23 12.8491V8.41578C23 7.16291 23 6.53647 22.7931 6.09179C22.5828 5.63982 22.3732 5.39938 21.9419 5.11518C21.5176 4.83555 20.6858 4.67408 19.0221 4.35114C17.1885 3.99521 15.7803 3.3525 14.493 2.42299C13.8756 1.97726 13.567 1.7544 13.3254 1.69361C13.0705 1.62947 12.9295 1.62947 12.6746 1.69361C12.433 1.7544 12.1244 1.97726 11.507 2.42299C10.2197 3.3525 8.8115 3.99521 6.97787 4.35114C5.31422 4.67408 4.48239 4.83555 4.05806 5.11518C3.62678 5.39938 3.41723 5.63982 3.20692 6.09179C3 6.53647 3 7.16291 3 8.41578V12.8491C3 18.5756 9.69245 22.7406 12.1275 24.0665Z" stroke="#181D27" stroke-width="2" stroke-linecap="round" stroke-linejoin="round"/>
</svg>
