<svg width="20" height="20" viewBox="0 0 20 20" fill="none" xmlns="http://www.w3.org/2000/svg">
<path d="M0 10C0 4.47715 4.47715 0 10 0C15.5228 0 20 4.47715 20 10C20 15.5228 15.5228 20 10 20C4.47715 20 0 15.5228 0 10Z" fill="#001FAF"/>
<path fill-rule="evenodd" clip-rule="evenodd" d="M14.2473 6.15837L8.28066 11.9167L6.69733 10.225C6.40566 9.95003 5.94733 9.93337 5.614 10.1667C5.289 10.4084 5.19733 10.8334 5.39733 11.175L7.27233 14.225C7.45566 14.5084 7.77233 14.6834 8.13066 14.6834C8.47233 14.6834 8.79733 14.5084 8.98066 14.225C9.28066 13.8334 15.0057 7.00837 15.0057 7.00837C15.7557 6.2417 14.8473 5.5667 14.2473 6.15003V6.15837Z" fill="white"/>
</svg>
