<svg width="24" height="24" viewBox="0 0 24 24" fill="none" xmlns="http://www.w3.org/2000/svg">
<path d="M20.4615 17H3.53846C2.69231 17 2 16.28 2 15.4V12.2C2 10.44 3.38462 9 5.07692 9H18.9231C20.6154 9 22 10.44 22 12.2V15.4C22 16.28 21.3077 17 20.4615 17Z" stroke="#475467" stroke-width="1.8" stroke-miterlimit="10" stroke-linecap="round" stroke-linejoin="round"/>
<path d="M19 9H4L5.5 5.71429C5.95 4.71429 7 4 8.2 4H14.725C15.925 4 16.975 4.71429 17.5 5.71429L19 9Z" stroke="#475467" stroke-width="1.8" stroke-miterlimit="10" stroke-linecap="round" stroke-linejoin="round"/>
<path d="M7 17H3V18.5C3 19.325 3.6 20 4.33333 20H5.66667C6.4 20 7 19.325 7 18.5V17Z" stroke="#475467" stroke-width="1.8" stroke-miterlimit="10" stroke-linecap="round" stroke-linejoin="round"/>
<path d="M21 17H16V18.5C16 19.325 16.75 20 17.6667 20H19.3333C20.25 20 21 19.325 21 18.5V17Z" stroke="#475467" stroke-width="1.8" stroke-miterlimit="10" stroke-linecap="round" stroke-linejoin="round"/>
<path d="M2 9H5" stroke="#475467" stroke-width="1.8" stroke-miterlimit="10" stroke-linecap="round" stroke-linejoin="round"/>
<path d="M19 9H22" stroke="#475467" stroke-width="1.8" stroke-miterlimit="10" stroke-linecap="round" stroke-linejoin="round"/>
<path d="M16 17H8L9.12 14.825C9.36 14.3 9.92 14 10.56 14H13.36C14 14 14.56 14.3 14.8 14.825L16 17Z" stroke="#475467" stroke-width="1.8" stroke-miterlimit="10" stroke-linecap="round" stroke-linejoin="round"/>
<path d="M4 13H7" stroke="#475467" stroke-width="1.8" stroke-miterlimit="10" stroke-linecap="round" stroke-linejoin="round"/>
<path d="M17 13H19" stroke="#475467" stroke-width="1.8" stroke-miterlimit="10" stroke-linecap="round" stroke-linejoin="round"/>
</svg>
