<svg width="246" height="40" viewBox="0 0 246 40" fill="none" xmlns="http://www.w3.org/2000/svg">
<path d="M81.5018 11.8096C82.7537 13.208 83.3797 15.467 83.3797 18.5865V29.4472C83.4027 29.8105 83.3456 30.1745 83.2123 30.5134C83.0791 30.8522 82.873 31.1577 82.6087 31.4082C82.0481 31.8802 81.3305 32.1244 80.5982 32.0925C79.88 32.1198 79.1779 31.8754 78.632 31.4082C78.3675 31.1578 78.1613 30.8524 78.028 30.5135C77.8948 30.1746 77.8378 29.8106 77.861 29.4472V18.5865C77.861 16.9681 77.5738 15.813 76.9995 15.121C76.6689 14.7598 76.2603 14.4786 75.8047 14.2987C75.3491 14.1189 74.8585 14.0451 74.3701 14.083C73.7213 14.0553 73.0746 14.1738 72.4779 14.4299C71.8813 14.686 71.35 15.073 70.9234 15.5622C70.0156 16.7066 69.5597 18.1441 69.642 19.602V29.4472C69.6651 29.8105 69.608 30.1745 69.4748 30.5134C69.3415 30.8523 69.1354 31.1577 68.871 31.4082C68.3259 31.8745 67.6253 32.1187 66.9083 32.0925C66.1837 32.1168 65.4755 31.8732 64.9196 31.4082C64.6488 31.1615 64.4368 30.8573 64.2991 30.5179C64.1614 30.1786 64.1016 29.8127 64.124 29.4472V18.5865C64.124 16.9681 63.8366 15.813 63.2618 15.121C62.9313 14.7599 62.5228 14.4788 62.0674 14.2989C61.6119 14.1191 61.1214 14.0452 60.6332 14.083C59.9875 14.054 59.3437 14.1721 58.7504 14.4284C58.1572 14.6847 57.6301 15.0724 57.2089 15.5622C56.3141 16.7126 55.866 18.1474 55.9472 19.602V29.4472C55.9697 29.8126 55.9099 30.1785 55.7724 30.5178C55.6348 30.8572 55.4229 31.1614 55.1523 31.4082C54.5963 31.8732 53.8882 32.1168 53.1636 32.0925C52.4466 32.1188 51.7459 31.8745 51.2009 31.4082C50.9364 31.1578 50.7302 30.8523 50.597 30.5134C50.4637 30.1745 50.4067 29.8106 50.4298 29.4472V12.358C50.4082 12.0018 50.4687 11.6454 50.6066 11.3162C50.7445 10.987 50.9563 10.6939 51.2254 10.4593C51.7871 10.0068 52.493 9.77155 53.2141 9.79674C53.8981 9.7685 54.5679 9.99684 55.092 10.4369C55.3412 10.6697 55.5358 10.9546 55.6618 11.2714C55.7879 11.5882 55.8422 11.9289 55.821 12.2691V13.3287C56.4556 12.194 57.3972 11.2607 58.5379 10.6358C59.7418 10.0006 61.0875 9.68149 62.4487 9.70849C65.6891 9.70849 67.8541 11.0625 68.9439 13.7707C69.5972 12.5289 70.595 11.5017 71.8179 10.8123C73.1215 10.0669 74.6018 9.68563 76.1036 9.70849C78.4598 9.70849 80.2641 10.4075 81.5165 11.8054" fill="#101828"/>
<path d="M93.0338 30.8129C91.3835 29.9152 90.0378 28.5473 89.1679 26.8831C88.2226 25.041 87.7519 22.9925 87.7983 20.9229C87.7503 18.8603 88.2212 16.8187 89.1679 14.9851C90.0432 13.3306 91.3881 11.9713 93.0338 11.0777C94.8384 10.1777 96.8276 9.70923 98.8445 9.70923C100.861 9.70923 102.851 10.1777 104.655 11.0777C106.298 11.9685 107.636 13.3291 108.499 14.9851C109.432 16.8231 109.895 18.8629 109.847 20.9229C109.893 22.9899 109.43 25.0366 108.499 26.8831C107.642 28.5487 106.302 29.9179 104.655 30.8129C102.851 31.7128 100.861 32.1813 98.8445 32.1813C96.8276 32.1813 94.8384 31.7128 93.0338 30.8129ZM102.91 26.133C103.852 24.9564 104.324 23.2197 104.324 20.9229C104.324 18.6569 103.852 16.9277 102.91 15.7352C102.422 15.1368 101.799 14.6627 101.093 14.3518C100.386 14.0409 99.6151 13.9023 98.8442 13.9472C98.0702 13.9037 97.2969 14.0429 96.5868 14.3536C95.8767 14.6642 95.2498 15.1375 94.7568 15.7352C93.7993 16.9273 93.3205 18.6565 93.3205 20.9229C93.3205 23.2187 93.7918 24.9554 94.7344 26.133C95.2255 26.7258 95.8496 27.1947 96.5559 27.5014C97.2623 27.8082 98.0311 27.9443 98.8 27.8987C99.5757 27.9471 100.352 27.8126 101.066 27.5058C101.78 27.1991 102.411 26.7288 102.91 26.133Z" fill="#101828"/>
<path d="M131.808 11.0812C133.282 12.0285 134.454 13.3762 135.188 14.9662C136.033 16.8063 136.449 18.8141 136.404 20.8381C136.444 22.8829 136.029 24.911 135.188 26.7759C134.457 28.4031 133.277 29.788 131.786 30.7681C130.304 31.7171 128.574 32.2085 126.814 32.1807C125.358 32.2066 123.92 31.8568 122.639 31.1652C121.447 30.5187 120.472 29.5361 119.835 28.3398V29.4436C119.852 29.7953 119.793 30.1464 119.664 30.4738C119.534 30.8011 119.336 31.0972 119.083 31.3424C118.539 31.8297 117.825 32.0835 117.095 32.049C116.736 32.0675 116.378 32.0145 116.041 31.8932C115.703 31.7719 115.393 31.5846 115.129 31.3424C114.882 31.0938 114.689 30.7966 114.564 30.4697C114.438 30.1428 114.382 29.7933 114.399 29.4436V3.03947C114.386 2.69311 114.448 2.34795 114.581 2.02787C114.714 1.70779 114.915 1.42042 115.171 1.18557C115.725 0.70066 116.445 0.44782 117.181 0.479598C117.903 0.444598 118.612 0.680663 119.169 1.14144C119.42 1.36892 119.618 1.64929 119.748 1.96236C119.878 2.27543 119.937 2.61341 119.92 2.95192V13.3714C120.555 12.2077 121.524 11.2616 122.704 10.6561C123.975 10.0084 125.386 9.68254 126.813 9.70704C128.575 9.67305 130.308 10.1483 131.806 11.0756M129.423 26.0426C130.395 24.8062 130.881 23.0698 130.881 20.8332C130.881 18.6256 130.402 16.9333 129.444 15.7562C128.92 15.197 128.286 14.7517 127.582 14.4479C126.879 14.1441 126.12 13.9884 125.353 13.9904C124.586 13.9924 123.828 14.1522 123.125 14.4597C122.423 14.7673 121.792 15.216 121.27 15.7779C120.312 16.9699 119.834 18.6845 119.834 20.9215C119.835 23.1585 120.313 24.8802 121.27 26.0867C121.785 26.66 122.415 27.1178 123.119 27.4298C123.823 27.7419 124.586 27.901 125.357 27.8969C126.127 27.8927 126.888 27.7253 127.589 27.4056C128.29 27.086 128.915 26.6214 129.423 26.0426Z" fill="#101828"/>
<path d="M141.309 5.05516C141.016 4.78286 140.786 4.4506 140.633 4.08109C140.481 3.71157 140.41 3.31351 140.425 2.9141C140.408 2.51772 140.479 2.12246 140.631 1.75624C140.784 1.39003 141.016 1.0618 141.309 0.794763C141.993 0.278995 142.827 0 143.684 0C144.541 0 145.375 0.278995 146.059 0.794763C146.358 1.0585 146.595 1.38559 146.752 1.75222C146.908 2.11885 146.981 2.51578 146.965 2.9141C146.98 3.31349 146.909 3.7115 146.757 4.08098C146.604 4.45047 146.374 4.78275 146.081 5.05516C145.398 5.58457 144.559 5.87193 143.695 5.87193C142.831 5.87193 141.991 5.58457 141.309 5.05516M141.729 31.4124C141.464 31.1616 141.258 30.8555 141.125 30.516C140.991 30.1765 140.934 29.8118 140.958 29.4479V12.4056C140.933 12.0448 140.989 11.6829 141.123 11.3466C141.256 11.0104 141.463 10.7083 141.729 10.4628C142.281 10.0086 142.981 9.77308 143.695 9.8009C144.416 9.77558 145.122 10.0105 145.684 10.4628C145.956 10.7045 146.169 11.0052 146.307 11.342C146.445 11.6787 146.504 12.0426 146.48 12.4056V29.4471C146.503 29.8132 146.443 30.1798 146.305 30.5198C146.168 30.8598 145.955 31.1646 145.684 31.4117C145.128 31.8767 144.42 32.1203 143.695 32.096C142.977 32.1232 142.275 31.8788 141.729 31.4117" fill="#101828"/>
<path d="M152.952 31.412C152.687 31.1612 152.48 30.8552 152.347 30.5156C152.214 30.1761 152.157 29.8114 152.181 29.4474V3.09019C152.155 2.72934 152.212 2.36744 152.345 2.03119C152.479 1.69493 152.686 1.39291 152.952 1.14736C153.503 0.693939 154.201 0.458415 154.914 0.4855C155.635 0.460239 156.341 0.695192 156.903 1.14736C157.175 1.38917 157.388 1.68995 157.526 2.0267C157.664 2.36345 157.723 2.72723 157.698 3.09019V29.4474C157.721 29.8135 157.662 30.18 157.524 30.52C157.386 30.86 157.174 31.1648 156.903 31.412C156.347 31.877 155.639 32.1206 154.914 32.0963C154.197 32.1227 153.497 31.8784 152.952 31.412Z" fill="#101828"/>
<path d="M163.756 5.05516C163.463 4.78286 163.232 4.4506 163.08 4.08109C162.927 3.71157 162.856 3.31351 162.872 2.9141C162.855 2.51772 162.925 2.12246 163.078 1.75624C163.23 1.39003 163.462 1.0618 163.756 0.794763C164.44 0.278995 165.273 0 166.13 0C166.988 0 167.821 0.278995 168.505 0.794763C168.805 1.0585 169.041 1.38559 169.198 1.75222C169.354 2.11885 169.427 2.51578 169.411 2.9141C169.426 3.31343 169.356 3.7114 169.203 4.08087C169.051 4.45035 168.82 4.78266 168.528 5.05516C167.845 5.58457 167.006 5.87193 166.142 5.87193C165.278 5.87193 164.438 5.58457 163.756 5.05516ZM164.176 31.4124C163.911 31.1616 163.705 30.8555 163.571 30.516C163.438 30.1765 163.381 29.8118 163.405 29.4479V12.4056C163.38 12.0448 163.436 11.6829 163.57 11.3466C163.703 11.0104 163.91 10.7083 164.176 10.4628C164.727 10.0095 165.426 9.77395 166.139 9.8009C166.86 9.77564 167.566 10.0106 168.128 10.4628C168.4 10.7046 168.613 11.0054 168.75 11.3421C168.888 11.6789 168.947 12.0426 168.922 12.4056V29.4471C168.945 29.8132 168.886 30.1797 168.748 30.5197C168.611 30.8597 168.399 31.1645 168.128 31.4117C167.572 31.8767 166.863 32.1203 166.139 32.096C165.422 32.1222 164.721 31.8779 164.176 31.4117" fill="#101828"/>
<path d="M188.986 29.9776C189 30.2986 188.927 30.6174 188.775 30.9007C188.624 31.1841 188.399 31.4216 188.124 31.5885C187.374 31.9932 186.517 32.1552 185.671 32.0521L184.479 31.9639C179.53 31.6109 177.056 28.9618 177.056 24.0167V14.3929H174.847C174.192 14.4361 173.543 14.2487 173.013 13.8634C172.81 13.6605 172.649 13.4197 172.539 13.1546C172.429 12.8895 172.372 12.6053 172.372 12.3183C172.372 12.0314 172.429 11.7472 172.539 11.4821C172.649 11.217 172.81 10.9762 173.013 10.7733C173.543 10.388 174.192 10.2006 174.847 10.2438H177.056V6.18166C177.039 5.83002 177.098 5.47885 177.227 5.15148C177.357 4.82411 177.555 4.52803 177.807 4.28294C178.366 3.79057 179.096 3.53685 179.84 3.57626C180.57 3.54229 181.284 3.79606 181.829 4.28294C182.082 4.52814 182.279 4.82422 182.409 5.15157C182.538 5.47891 182.597 5.83004 182.58 6.18166V10.2438H186.336C186.991 10.2006 187.639 10.388 188.17 10.7733C188.58 11.1831 188.81 11.7389 188.81 12.3183C188.81 12.8978 188.58 13.4536 188.17 13.8634C187.639 14.2487 186.991 14.4361 186.336 14.3929H182.58V24.4145C182.58 26.5932 183.582 27.7558 185.585 27.9024L186.776 27.9907C188.249 28.0789 188.986 28.7412 188.986 29.9776Z" fill="#101828"/>
<path d="M208.229 10.2204C208.618 9.9728 209.07 9.84249 209.532 9.845C210.206 9.84394 210.857 10.087 211.366 10.5293C211.623 10.7311 211.831 10.9893 211.972 11.284C212.114 11.5788 212.186 11.9021 212.183 12.2291C212.175 12.5836 212.084 12.9314 211.918 13.2446L199.856 38.4981C199.662 38.9545 199.334 39.3419 198.917 39.6097C198.499 39.8774 198.01 40.0131 197.514 39.999C196.86 40.0073 196.224 39.7801 195.724 39.3588C195.48 39.1679 195.283 38.9232 195.149 38.6438C195.016 38.3643 194.948 38.0577 194.953 37.748C194.966 37.366 195.056 36.9906 195.218 36.6442L198.223 30.331L190.004 13.2418C189.852 12.9254 189.776 12.5775 189.783 12.2263C189.783 11.8921 189.861 11.5626 190.01 11.2637C190.16 10.9648 190.377 10.7047 190.644 10.504C191.194 10.0418 191.892 9.79114 192.61 9.79736C193.093 9.79272 193.567 9.92274 193.98 10.1728C194.417 10.4528 194.757 10.8615 194.952 11.3424L201.138 24.9843L207.28 11.3865C207.472 10.9101 207.803 10.5024 208.23 10.2169" fill="#101828"/>
<path d="M5.38029 31.1498C3.67796 30.2077 2.29246 28.7837 1.39807 27.0568C0.477482 25.1121 0 22.9877 0 20.8364C0 18.6852 0.477482 16.5607 1.39807 14.616C2.29038 12.892 3.67682 11.4728 5.38029 10.5398C7.27445 9.59986 9.36067 9.11072 11.4756 9.11072C13.5905 9.11072 15.6767 9.59986 17.5709 10.5398C19.272 11.4706 20.6538 12.8908 21.537 14.616C22.4497 16.5634 22.9215 18.6879 22.9187 20.8382C22.9159 22.9885 22.4387 25.1118 21.5209 27.0568C20.6263 28.7835 19.2409 30.2075 17.5386 31.1498C15.6533 32.1001 13.5711 32.5952 11.4595 32.5952C9.34782 32.5952 7.26561 32.1001 5.38029 31.1498ZM15.5395 26.1771C16.5148 24.9538 17.0024 23.1728 17.0024 20.834C17.0024 18.4952 16.5085 16.7204 15.5206 15.5097C15.0111 14.939 14.3869 14.482 13.6887 14.1686C12.9906 13.8552 12.2341 13.6924 11.4687 13.6909C10.7033 13.6894 9.94616 13.8492 9.24674 14.1598C8.54732 14.4704 7.92132 14.9249 7.4096 15.4936C6.43431 16.6955 5.94669 18.4765 5.94669 20.8368C5.94669 23.197 6.43431 24.9835 7.4096 26.196C7.92014 26.7695 8.54668 27.2282 9.24779 27.5418C9.9489 27.8553 10.7086 28.0167 11.4768 28.0152C12.2449 28.0137 13.004 27.8493 13.7039 27.5329C14.4037 27.2166 15.0284 26.7554 15.5367 26.1799" fill="#101828"/>
<path d="M46.6505 29.7042C46.6508 30.057 46.5788 30.4062 46.439 30.7303C46.2991 31.0543 46.0944 31.3462 45.8374 31.5882C45.5901 31.8473 45.2924 32.053 44.9626 32.1927C44.6328 32.3325 44.2777 32.4032 43.9195 32.4006C43.499 32.3901 43.0853 32.2923 42.7046 32.1134C42.324 31.9344 41.9848 31.6783 41.7086 31.3613L32.4439 21.8768V29.5424C32.4644 29.9389 32.4028 30.3353 32.263 30.707C32.1232 31.0786 31.9082 31.4175 31.6315 31.7024C31.3348 31.9757 30.9863 32.187 30.6066 32.3236C30.2269 32.4603 29.8236 32.5196 29.4206 32.498C29.0241 32.5297 28.6254 32.4749 28.2521 32.3376C27.8787 32.2003 27.5397 31.9836 27.2584 31.7026C26.977 31.4216 26.7601 31.0829 26.6226 30.7099C26.4851 30.337 26.4302 29.9386 26.4618 29.5424V12.164C26.443 11.7739 26.5039 11.3841 26.6408 11.0182C26.7777 10.6524 26.9878 10.3183 27.2581 10.0362C27.5457 9.76417 27.8856 9.55337 28.2572 9.4166C28.6289 9.27983 29.0244 9.21995 29.4199 9.24061C29.8229 9.21915 30.2261 9.27849 30.6058 9.41513C30.9855 9.55177 31.334 9.76295 31.6308 10.0362C31.9055 10.3159 32.1194 10.6493 32.2592 11.0154C32.399 11.3815 32.4617 11.7725 32.4432 12.164V19.3078L41.5797 10.121C41.8157 9.85236 42.1051 9.63573 42.4294 9.48483C42.7537 9.33393 43.1058 9.25206 43.4635 9.24442C43.8212 9.23678 44.1765 9.30354 44.507 9.44046C44.8375 9.57737 45.1358 9.78145 45.3831 10.0397C45.6405 10.278 45.8456 10.567 45.9854 10.8886C46.1253 11.2101 46.1968 11.5571 46.1956 11.9076C46.1846 12.2852 46.0951 12.6563 45.9328 12.9974C45.7705 13.3386 45.5389 13.6422 45.2528 13.889L38.5886 20.4179L45.8086 27.8237C46.0737 28.0611 46.286 28.3514 46.4316 28.676C46.5772 29.0005 46.653 29.352 46.654 29.7077" fill="#101828"/>
<path d="M221.805 10.1696C222.203 9.91675 222.665 9.78352 223.137 9.7858C223.827 9.78464 224.494 10.0335 225.014 10.4862C225.277 10.6927 225.49 10.957 225.635 11.2587C225.78 11.5603 225.853 11.8913 225.85 12.2259C225.842 12.5887 225.749 12.9447 225.579 13.2653L217.041 31.0548C216.843 31.5221 216.508 31.9187 216.081 32.1927C215.653 32.4668 215.153 32.6055 214.645 32.5908C213.975 32.5994 213.325 32.3669 212.813 31.9359C212.563 31.7408 212.361 31.4903 212.223 31.2041C212.086 30.9179 212.017 30.6038 212.022 30.2865C212.035 29.8956 212.128 29.5114 212.293 29.1568L220.831 11.3672C221.028 10.8792 221.367 10.4618 221.805 10.1696Z" fill="#3855E5"/>
<path d="M241.292 10.1696C241.69 9.91671 242.152 9.78348 242.624 9.7858C243.314 9.78471 243.98 10.0335 244.501 10.4862C244.764 10.6927 244.977 10.957 245.122 11.2587C245.267 11.5604 245.34 11.8913 245.337 12.2259C245.329 12.5888 245.236 12.9447 245.066 13.2653L236.528 31.0548C236.329 31.5221 235.994 31.9187 235.567 32.1927C235.139 32.4668 234.639 32.6055 234.131 32.5908C233.462 32.5993 232.811 32.3669 232.299 31.9359C232.049 31.7408 231.847 31.4903 231.71 31.2041C231.572 30.9179 231.503 30.6038 231.508 30.2865C231.522 29.8956 231.614 29.5114 231.779 29.1568L240.317 11.3672C240.514 10.879 240.854 10.4616 241.292 10.1696Z" fill="#05F3DB"/>
<path d="M231.649 10.1686C232.046 9.9157 232.509 9.7829 232.981 9.78619C233.668 9.78591 234.332 10.0348 234.85 10.4866C235.113 10.6921 235.325 10.9555 235.469 11.2561C235.614 11.5567 235.687 11.8865 235.683 12.22C235.676 12.5817 235.583 12.9365 235.413 13.2559L234.495 15.0355C234.297 15.501 233.963 15.896 233.537 16.169C233.111 16.442 232.612 16.5803 232.106 16.5658C231.44 16.5738 230.793 16.3421 230.284 15.9131C230.034 15.7187 229.833 15.4692 229.696 15.1841C229.56 14.899 229.491 14.5861 229.495 14.27C229.509 13.8805 229.601 13.4977 229.766 13.1445L230.684 11.3648C230.878 10.8784 231.214 10.4615 231.649 10.1686Z" fill="#05DBF3"/>
<path d="M227.629 18.195C228.027 17.9421 228.49 17.8093 228.961 17.8126C229.649 17.812 230.314 18.0609 230.831 18.5129C231.094 18.7184 231.306 18.9817 231.451 19.2821C231.595 19.5826 231.669 19.9123 231.665 20.2457C231.657 20.6071 231.564 20.9616 231.394 21.2808L230.475 23.0612C230.278 23.5265 229.944 23.9215 229.518 24.1945C229.092 24.4675 228.594 24.6058 228.088 24.5915C227.422 24.5993 226.775 24.3677 226.265 23.9388C226.016 23.7444 225.815 23.4949 225.678 23.2098C225.541 22.9247 225.472 22.6118 225.477 22.2957C225.49 21.9062 225.582 21.5234 225.747 21.1702L226.666 19.3898C226.86 18.9039 227.195 18.4875 227.629 18.195Z" fill="#05DBF3"/>
<path d="M223.613 26.2223C224.011 25.9696 224.473 25.8368 224.945 25.8399C225.632 25.8397 226.296 26.0885 226.814 26.5403C227.077 26.746 227.289 27.0094 227.433 27.3099C227.578 27.6105 227.651 27.9403 227.648 28.2737C227.64 28.6351 227.547 28.9895 227.378 29.3089L226.459 31.0885C226.261 31.5538 225.927 31.9487 225.501 32.2217C225.075 32.4947 224.577 32.6331 224.071 32.6188C223.405 32.6267 222.758 32.3951 222.249 31.9661C221.999 31.7717 221.798 31.5221 221.661 31.2371C221.525 30.952 221.456 30.6391 221.46 30.323C221.474 29.9335 221.566 29.5507 221.731 29.1975L222.649 27.4179C222.843 26.9318 223.179 26.5152 223.613 26.2223Z" fill="#05DBF3"/>
</svg>
